<svg width="1000" height="1000" viewBox="0 0 1000 1000" fill="none" xmlns="http://www.w3.org/2000/svg">
<path fill-rule="evenodd" clip-rule="evenodd" d="M826.658 499.248L1000 499.248L1000 501.248L826.658 501.248L826.658 499.248ZM0.000582126 499.248L173.343 499.248L173.343 501.248L0.000521034 501.248L0.000582126 499.248ZM992.406 412.643L821.909 442.681L822.257 444.651L992.754 414.613L992.406 412.643ZM7.49118 586.165L177.988 556.127L178.336 558.096L7.83878 588.134L7.49118 586.165ZM969.845 328.517L807.158 387.68L807.843 389.559L970.529 330.397L969.845 328.517ZM30.0548 670.286L192.741 611.123L193.426 613.002L30.7393 672.165L30.0548 670.286ZM933.004 249.594L783.071 336.084L784.072 337.816L934.005 251.325L933.004 249.594ZM66.8877 749.217L216.82 662.727L217.821 664.458L67.8883 750.949L66.8877 749.217ZM883.014 178.247L750.391 289.437L751.677 290.968L884.3 179.778L883.014 178.247ZM116.883 820.563L249.506 709.373L250.792 710.905L118.169 822.095L116.883 820.563ZM821.374 116.661L710.09 249.172L711.623 250.456L822.907 117.946L821.374 116.661ZM663.409 216.518L749.973 66.7126L751.705 67.7119L665.141 217.518L663.409 216.518ZM670.975 29.9021L611.762 192.451L613.641 193.134L672.854 30.5857L670.975 29.9021ZM556.719 177.718L586.782 7.36508L588.752 7.71209L558.689 178.065L556.719 177.718ZM499.67 -3.38181e-05L499.67 172.539L501.67 172.539L501.67 -3.35477e-05L499.67 -3.38181e-05ZM443.175 177.718L413.111 7.36508L415.081 7.01807L445.144 177.371L443.175 177.718ZM328.919 29.9021L388.132 192.451L390.012 191.767L330.799 29.2186L328.919 29.9021ZM336.482 216.518L249.918 66.7126L251.65 65.7132L338.214 215.519L336.482 216.518ZM178.518 116.661L289.802 249.171L291.334 247.886L180.05 115.376L178.518 116.661ZM249.509 289.437L116.886 178.247L118.172 176.715L250.795 287.905L249.509 289.437ZM750.387 709.373L883.01 820.563L884.296 819.031L751.673 707.842L750.387 709.373ZM216.819 336.084L66.8867 249.594L67.8873 247.862L217.82 334.352L216.819 336.084ZM783.073 662.727L933.006 749.217L934.006 747.485L784.074 660.995L783.073 662.727ZM192.742 387.68L30.0556 328.517L30.7402 326.638L193.427 385.801L192.742 387.68ZM807.155 611.123L969.842 670.286L970.526 668.407L807.84 609.244L807.155 611.123ZM177.991 442.681L7.49411 412.643L7.84171 410.674L178.339 440.712L177.991 442.681ZM821.902 556.127L992.399 586.165L992.747 584.195L822.25 554.157L821.902 556.127Z" fill="#8B6AD5"/>
<line y1="-1" x2="173.041" y2="-1" transform="matrix(0.643107 -0.765776 0.766312 0.642468 178.487 883.34)" stroke="#8B6AD5" stroke-width="2"/>
<line y1="-1" x2="173.017" y2="-1" transform="matrix(0.500318 -0.865842 0.866209 0.499683 249.889 933.289)" stroke="#8B6AD5" stroke-width="2"/>
<line y1="-1" x2="172.998" y2="-1" transform="matrix(0.342276 -0.939599 0.939786 0.341765 328.888 970.098)" stroke="#8B6AD5" stroke-width="2"/>
<line y1="-1" x2="172.985" y2="-1" transform="matrix(0.173791 -0.984783 0.984833 0.173506 413.079 992.637)" stroke="#8B6AD5" stroke-width="2"/>
<line x1="499.191" y1="1000" x2="499.191" y2="827.461" stroke="#8B6AD5" stroke-width="2"/>
<line y1="-1" x2="172.985" y2="-1" transform="matrix(-0.173791 -0.984783 0.984833 -0.173505 586.751 992.637)" stroke="#8B6AD5" stroke-width="2"/>
<line y1="-1" x2="172.998" y2="-1" transform="matrix(-0.342276 -0.9396 0.939786 -0.341764 670.943 970.098)" stroke="#8B6AD5" stroke-width="2"/>
<line y1="-1" x2="173.017" y2="-1" transform="matrix(-0.500317 -0.865842 0.866209 -0.499682 749.944 933.289)" stroke="#8B6AD5" stroke-width="2"/>
<line y1="-1" x2="173.041" y2="-1" transform="matrix(-0.643107 -0.765776 0.766312 -0.642468 821.344 883.34)" stroke="#8B6AD5" stroke-width="2"/>
</svg>
