<svg width="181" height="38" viewBox="0 0 181 38" fill="none" xmlns="http://www.w3.org/2000/svg">
<path d="M16.1186 37.9974C23.8854 37.9974 29.4592 33.9648 30.4187 25.9921H24.4793C23.8397 30.6737 20.6416 32.9914 16.1186 32.9914C10.0879 32.9914 6.57002 28.5879 6.57002 21.1251V20.7543C6.57002 13.3379 10.3164 8.79534 16.0729 8.79534C20.7787 8.79534 23.2001 11.0666 23.8854 15.4701H30.0532C29.3222 7.68287 23.5199 3.88197 16.0272 3.88197C6.93551 3.88197 0.173828 10.8349 0.173828 20.8006V21.1715C0.173828 31.369 5.88471 37.9974 16.1186 37.9974Z" fill="#F4F4F4"/>
<path d="M42.1699 37.9974C45.4594 37.9974 48.429 35.9116 49.7539 33.5476V37.5339H55.2821V13.2915H49.7539V16.9534C48.3833 14.5431 46.0533 12.7817 42.3983 12.7817C36.6417 12.7817 31.8446 17.695 31.8446 25.4359V25.8067C31.8446 33.6866 36.5961 37.9974 42.1699 37.9974ZM43.4948 33.5476C40.1596 33.5476 37.5098 30.9982 37.5098 25.6677V25.2968C37.5098 20.059 39.9769 17.1851 43.7689 17.1851C47.4696 17.1851 49.9367 19.7809 49.9367 25.1578V25.5286C49.9367 30.9519 47.0584 33.5476 43.4948 33.5476Z" fill="#F4F4F4"/>
<path d="M59.259 37.5339H64.7871V2.07422H59.259V37.5339Z" fill="#F4F4F4"/>
<path d="M68.9211 37.5339H74.4492V13.2915H68.9211V37.5339Z" fill="#F4F4F4"/>
<path d="M91.7868 37.9974C97.9545 37.9974 102.386 33.2695 102.386 25.4822V25.1114C102.386 17.2778 97.7718 12.7817 91.7868 12.7817C88.2688 12.7817 85.2992 14.8675 83.9743 17.1851V2.07422H78.4461V37.5339H83.9743V33.6403C85.2535 36.097 87.9947 37.9974 91.7868 37.9974ZM90.4161 33.5476C86.3957 33.5476 83.7915 30.9982 83.7915 25.575V25.2041C83.7915 19.8272 86.5327 17.1851 90.3704 17.1851C93.9797 17.1851 96.721 19.8272 96.721 25.2041V25.575C96.721 30.7665 94.4823 33.5476 90.4161 33.5476Z" fill="#F4F4F4"/>
<path d="M104.616 37.5339H110.144V24.926C110.144 19.7809 113.068 18.2049 117.911 18.1586V12.9207C113.891 12.9671 111.652 14.7748 110.144 17.8341V13.2915H104.616V37.5339Z" fill="#F4F4F4"/>
<path d="M128.36 37.9974C131.649 37.9974 134.619 35.9116 135.944 33.5476V37.5339H141.472V13.2915H135.944V16.9534C134.573 14.5431 132.243 12.7817 128.588 12.7817C122.831 12.7817 118.034 17.695 118.034 25.4359V25.8067C118.034 33.6866 122.786 37.9974 128.36 37.9974ZM129.685 33.5476C126.349 33.5476 123.7 30.9982 123.7 25.6677V25.2968C123.7 20.059 126.167 17.1851 129.959 17.1851C133.659 17.1851 136.126 19.7809 136.126 25.1578V25.5286C136.126 30.9519 133.248 33.5476 129.685 33.5476Z" fill="#F4F4F4"/>
<path d="M153.444 37.9511C155.134 37.9511 156.322 37.673 157.19 37.3485V32.8987C156.414 33.2231 155.591 33.3622 154.495 33.3622C152.759 33.3622 151.754 32.3888 151.754 30.2566V17.5096H157.008V13.2915H151.754V7.961H146.225V13.2915H143.027V17.5096H146.225V30.7664C146.225 35.3554 148.692 37.9511 153.444 37.9511Z" fill="#F4F4F4"/>
<path d="M169.943 37.9974C176.065 37.9974 180.132 35.2163 180.908 30.1175H175.563C175.152 32.4815 173.416 33.8257 170.08 33.8257C165.969 33.8257 163.684 31.23 163.502 26.6411H181V25.0187C181 16.3508 175.654 12.7817 169.715 12.7817C162.908 12.7817 157.836 17.7877 157.836 25.2968V25.6677C157.836 33.3158 162.908 37.9974 169.943 37.9974ZM163.593 22.8865C164.141 19.132 166.38 16.8607 169.715 16.8607C173.142 16.8607 175.243 18.7148 175.517 22.8865H163.593Z" fill="#F4F4F4"/>
<path d="M71.6625 7.92969L68.2782 1.98261L75.0468 1.98261L71.6625 7.92969Z" fill="#8B6AD5"/>
</svg>
