<svg width="28" height="34" viewBox="0 0 28 34" fill="none" xmlns="http://www.w3.org/2000/svg">
<path d="M11.311 25.7967V31.8143L22.2523 30.1731V20.5886C29.5303 15.1181 25.701 1.9999 15.1403 2C4.36598 2.0001 2 14.8556 2 18.9586H5.82936L6.1715 24.2735C6.22664 25.1301 6.93754 25.7967 7.79596 25.7967H11.311Z" stroke="#211E3F" stroke-width="2.08696"/>
<path d="M14.6418 7V20.4454M14.6418 7L12.625 9.01682M14.6418 7L16.6586 9.01682M14.6418 20.4454L12.625 18.4286M14.6418 20.4454L16.6586 18.4286" stroke="#9F8DE5" stroke-width="1.2707"/>
<path d="M21.0283 13.7238L7.58288 13.7238M21.0283 13.7238L19.0115 11.707M21.0283 13.7238L19.0115 15.7407M7.58288 13.7238L9.59969 11.707M7.58288 13.7238L9.59969 15.7407" stroke="#9F8DE5" stroke-width="1.2707"/>
</svg>
