<svg fill="none" height="35" viewBox="0 0 36 35" width="36" xmlns="http://www.w3.org/2000/svg"><g stroke="#120d3d" stroke-width="2"><path d="m14.442 12.0212c-3.6879 2.5083-6.57425 5.3619-8.27332 7.9125-.85106 1.2777-1.37505 2.4356-1.57947 3.4029-.20364.9636-.07562 1.648.2437 2.1175s.90885.84 1.87985 1.0046c.9747.1653 2.2442.1034 3.74514-.2187 2.9965-.643 6.711-2.279 10.3989-4.7873 3.6879-2.5084 6.5742-5.3619 8.2733-7.9126.851-1.2776 1.375-2.4356 1.5794-3.4028.2037-.96359.0756-1.64802-.2437-2.1175s-.9088-.84003-1.8798-1.00467c-.9747-.16527-2.2442-.1034-3.7452.21871-2.9965.64307-6.711 2.27904-10.3988 4.78736z"/><path d="m20.4923 11.1777c-3.8625-2.22998-7.6873-3.58808-10.72306-4.00881-1.52059-.21074-2.7912-.17899-3.75109.05758-.95625.23568-1.5169.64862-1.80079 1.14033s-.36117 1.18372-.08715 2.1297c.27506.9496.88287 2.0658 1.82568 3.2773 1.88222 2.4187 4.97081 5.052 8.83331 7.2821 3.8625 2.23 7.6873 3.5881 10.7231 4.0088 1.5206.2108 2.7912.179 3.7511-.0576.9562-.2357 1.5169-.6486 1.8008-1.1403.2838-.4917.3611-1.1837.0871-2.1297-.2751-.9496-.8829-2.0658-1.8257-3.2773-1.8822-2.4187-4.9708-5.052-8.8333-7.2821z"/><path d="m22.7188 16.5c0-4.4601-.7363-8.4515-1.8898-11.29088-.5778-1.42225-1.2406-2.50676-1.9254-3.21976-.6823-.71029-1.3202-.98936-1.888-.98936s-1.2057.27907-1.8879.98936c-.6848.713-1.3476 1.79751-1.9254 3.21976-1.1535 2.83938-1.8898 6.83078-1.8898 11.29088s.7363 8.4515 1.8898 11.2909c.5778 1.4222 1.2406 2.5067 1.9254 3.2197.6822.7103 1.3201.9894 1.8879.9894s1.2057-.2791 1.888-.9894c.6848-.713 1.3476-1.7975 1.9254-3.2197 1.1535-2.8394 1.8898-6.8308 1.8898-11.2909z"/></g><g fill="#8b6ad5"><circle cx="20.5703" cy="3.5" r="2.5"/><circle cx="17.5" cy="32.5" r="2.5"/><circle cx="17.5703" cy="16.5" r="2.5"/></g></svg>