<svg fill="none" height="32" viewBox="0 0 36 32" width="36" xmlns="http://www.w3.org/2000/svg"><g stroke-linecap="round" stroke-linejoin="round" stroke-width="2.32265"><path d="m15 11.2891h-10.93542c-.54756 0-1.07269.2175-1.45988.6047-.38718.3871-.6047.9123-.6047 1.4598v16.5167l4.12916-4.1292h12.38744c.5476 0 1.0727-.2175 1.4599-.6047s.6047-.9123.6047-1.4599v-7.1765" stroke="#148e86"/><path d="m15.4188 14.3875c0 .5475.2175 1.0727.6047 1.4599.3872.3871.9123.6047 1.4599.6047h12.3874l4.1292 4.1291v-16.51662c0-.54756-.2175-1.07269-.6047-1.45988-.3872-.38718-.9123-.6047-1.4599-.6047h-14.452c-.5476 0-1.0727.21752-1.4599.6047-.3872.38719-.6047.91232-.6047 1.45988z" stroke="#120d3d"/></g></svg>