<svg width="49" height="38" viewBox="0 0 49 38" fill="none" xmlns="http://www.w3.org/2000/svg">
<circle cx="24.0757" cy="3.89091" r="3.89091" fill="#211E3F"/>
<circle cx="24.0757" cy="3.89091" r="3.89091" stroke="#120D3D"/>
<path d="M24.2571 8.54688C20.6435 8.54688 17.5797 10.9012 16.516 14.1596H31.9982C30.9345 10.9012 27.8707 8.54688 24.2571 8.54688Z" fill="#211E3F"/>
<circle cx="7.71552" cy="27.4234" r="3.97028" fill="#211E3F"/>
<circle cx="7.71552" cy="27.4234" r="3.97028" stroke="#120D3D"/>
<path d="M7.89899 32.1758C4.21166 32.1758 1.08542 34.5781 0 37.903H15.798C14.7126 34.5781 11.5863 32.1758 7.89899 32.1758Z" fill="#211E3F"/>
<circle cx="40.5888" cy="27.6292" r="3.89091" fill="#211E3F"/>
<circle cx="40.5888" cy="27.6292" r="3.89091" stroke="#120D3D"/>
<path d="M40.7701 32.2852C37.1565 32.2852 34.0928 34.6394 33.0291 37.8979H48.5112C47.4475 34.6394 44.3838 32.2852 40.7701 32.2852Z" fill="#211E3F"/>
<path d="M24.2548 18.2031V25.4281M24.2548 25.4281L30.4477 29.5567M24.2548 25.4281L18.578 29.5567" stroke="#9F8DE5" stroke-width="2.5689"/>
</svg>
