<svg fill="none" height="24" viewBox="0 0 24 24" width="24" xmlns="http://www.w3.org/2000/svg"><g stroke="#8b6ad5" stroke-linecap="round" stroke-linejoin="round" stroke-width="2"><path d="m17 2h-10c-2.76142 0-5 2.23858-5 5v10c0 2.7614 2.23858 5 5 5h10c2.7614 0 5-2.2386 5-5v-10c0-2.76142-2.2386-5-5-5z"/><path d="m16 11.3703c.1234.8322-.0188 1.6822-.4063 2.429s-1.0006 1.3524-1.7521 1.7307c-.7515.3782-1.6032.5099-2.4339.3762-.8306-.1336-1.59799-.5258-2.19291-1.1207-.59492-.595-.98711-1.3623-1.12077-2.193-.13367-.8306-.002-1.6823.37626-2.4338.37826-.75154.98386-1.36466 1.73062-1.75216.7468-.3875 1.5968-.52965 2.4291-.40624.8489.12589 1.6348.52146 2.2416 1.12831.6069.60684 1.0025 1.39279 1.1284 2.24169z"/><path d="m17.5 6.5h.01"/></g></svg>