<svg width="32" height="32" viewBox="0 0 32 32" fill="none" xmlns="http://www.w3.org/2000/svg">
<circle cx="16" cy="16" r="16" fill="#211E3F"/>
<g clip-path="url(#clip0_151_2908)">
<path d="M21.0812 8.67578H10.9225C10.2489 8.67578 9.60295 8.94335 9.12667 9.41964C8.65039 9.89592 8.38281 10.5419 8.38281 11.2155V21.3742C8.38281 22.0478 8.65039 22.6937 9.12667 23.17C9.60295 23.6463 10.2489 23.9139 10.9225 23.9139H21.0812C21.7548 23.9139 22.4008 23.6463 22.8771 23.17C23.3533 22.6937 23.6209 22.0478 23.6209 21.3742V11.2155C23.6209 10.5419 23.3533 9.89592 22.8771 9.41964C22.4008 8.94335 21.7548 8.67578 21.0812 8.67578V8.67578ZM22.3511 21.3742C22.3511 21.711 22.2173 22.034 21.9791 22.2721C21.741 22.5102 21.418 22.644 21.0812 22.644H10.9225C10.5857 22.644 10.2627 22.5102 10.0246 22.2721C9.78644 22.034 9.65265 21.711 9.65265 21.3742V11.2155C9.65265 10.8787 9.78644 10.5557 10.0246 10.3176C10.2627 10.0794 10.5857 9.94562 10.9225 9.94562H21.0812C21.418 9.94562 21.741 10.0794 21.9791 10.3176C22.2173 10.5557 22.3511 10.8787 22.3511 11.2155V21.3742Z" fill="white"/>
<path d="M16.0048 12.4854C15.2514 12.4854 14.5149 12.7088 13.8884 13.1274C13.2619 13.546 12.7736 14.1409 12.4853 14.837C12.197 15.5331 12.1215 16.2991 12.2685 17.0381C12.4155 17.7771 12.7783 18.4558 13.3111 18.9886C13.8439 19.5214 14.5227 19.8842 15.2616 20.0312C16.0006 20.1782 16.7666 20.1028 17.4627 19.8144C18.1588 19.5261 18.7537 19.0378 19.1723 18.4113C19.5909 17.7849 19.8144 17.0483 19.8144 16.2949C19.8144 15.2845 19.413 14.3156 18.6986 13.6011C17.9842 12.8867 17.0152 12.4854 16.0048 12.4854ZM16.0048 18.8346C15.5025 18.8346 15.0115 18.6856 14.5939 18.4065C14.1762 18.1275 13.8507 17.7308 13.6585 17.2668C13.4663 16.8027 13.416 16.2921 13.514 15.7994C13.6119 15.3068 13.8538 14.8542 14.209 14.499C14.5642 14.1439 15.0167 13.902 15.5094 13.804C16.002 13.706 16.5127 13.7563 16.9767 13.9485C17.4408 14.1407 17.8374 14.4663 18.1165 14.8839C18.3956 15.3016 18.5445 15.7926 18.5445 16.2949C18.5445 16.9684 18.2769 17.6144 17.8007 18.0907C17.3244 18.567 16.6784 18.8346 16.0048 18.8346Z" fill="white"/>
<path d="M20.1281 13.1201C20.6541 13.1201 21.0805 12.6937 21.0805 12.1677C21.0805 11.6417 20.6541 11.2153 20.1281 11.2153C19.6022 11.2153 19.1758 11.6417 19.1758 12.1677C19.1758 12.6937 19.6022 13.1201 20.1281 13.1201Z" fill="white"/>
</g>
<defs>
<clipPath id="clip0_151_2908">
<rect width="15.2381" height="15.2381" fill="white" transform="translate(8.38281 8.67578)"/>
</clipPath>
</defs>
</svg>
