<svg width="17" height="18" viewBox="0 0 17 18" fill="none" xmlns="http://www.w3.org/2000/svg">
<path d="M14.4961 1.98792C14.8936 1.98792 15.2177 2.34899 15.2177 2.7914C15.2177 3.2365 14.8934 3.59489 14.4961 3.59489C14.0985 3.59489 13.7744 3.23631 13.7744 2.7914C13.7744 2.3488 14.0985 1.98792 14.4961 1.98792Z" fill="#148E86"/>
<path d="M10.4697 9.74646C10.8695 9.74646 11.1914 10.1075 11.1914 10.5499C11.1914 10.9926 10.8693 11.3534 10.4697 11.3534C10.0722 11.3534 9.74805 10.9924 9.74805 10.5499C9.74805 10.1073 10.0721 9.74646 10.4697 9.74646Z" fill="#148E86"/>
<path d="M6.77927 5.88196C7.17679 5.88196 7.50092 6.24285 7.50092 6.68545C7.50092 7.13054 7.17662 7.48894 6.77927 7.48894C6.38175 7.48894 6.05762 7.13035 6.05762 6.68545C6.05762 6.24285 6.38175 5.88196 6.77927 5.88196Z" fill="#148E86"/>
<path d="M4.28122 11.074C4.67875 11.074 5.00288 11.4351 5.00288 11.8775C5.00288 12.3226 4.67857 12.681 4.28122 12.681C3.8837 12.681 3.55957 12.3224 3.55957 11.8775C3.55957 11.4351 3.8837 11.074 4.28122 11.074Z" fill="#148E86"/>
<path d="M14.4955 0.998901C15.3838 0.998901 16.1055 1.80488 16.1055 2.7914C16.1055 3.78041 15.3838 4.5839 14.4955 4.5839C14.4111 4.5839 14.3269 4.57643 14.2469 4.56162L11.7687 9.49402C11.9641 9.79062 12.0795 10.1542 12.0795 10.5498C12.0795 11.5388 11.3579 12.3423 10.4696 12.3423C9.58353 12.3423 8.85965 11.5388 8.85965 10.5498C8.85965 10.1912 8.95511 9.85759 9.1195 9.57803L7.69173 8.16136C7.43188 8.36163 7.11658 8.47794 6.77897 8.47794C6.64802 8.47794 6.52136 8.46071 6.39917 8.42598L5.37552 10.5695C5.69088 10.8959 5.89076 11.3633 5.89076 11.8774C5.89076 12.8664 5.1691 13.6699 4.28083 13.6699C3.39255 13.6699 2.6709 12.8664 2.6709 11.8774C2.6709 10.8909 3.39255 10.0849 4.28083 10.0849C4.38524 10.0849 4.48724 10.0972 4.58512 10.1197L5.6266 7.93652C5.3445 7.61266 5.1691 7.17254 5.1691 6.68544C5.1691 5.69893 5.89076 4.89295 6.77903 4.89295C7.66731 4.89295 8.38896 5.69893 8.38896 6.68544C8.38896 6.94004 8.34005 7.17982 8.25577 7.39739L9.79471 8.92533C10.0011 8.81904 10.23 8.75724 10.4699 8.75724C10.6785 8.75724 10.8762 8.80174 11.0583 8.88326L13.4388 4.14123C13.1013 3.81239 12.8858 3.33027 12.8858 2.79134C12.8856 1.80488 13.6073 0.998901 14.4955 0.998901ZM15.2172 2.7914C15.2172 2.3488 14.8929 1.98791 14.4955 1.98791C14.098 1.98791 13.7739 2.34899 13.7739 2.7914C13.7739 3.23649 14.0982 3.59489 14.4955 3.59489C14.8931 3.59489 15.2172 3.23649 15.2172 2.7914ZM11.1912 10.5498C11.1912 10.1072 10.8692 9.74631 10.4696 9.74631C10.0721 9.74631 9.74792 10.1074 9.74792 10.5498C9.74792 10.9924 10.0722 11.3533 10.4696 11.3533C10.8694 11.3533 11.1912 10.9924 11.1912 10.5498ZM7.50063 6.68544C7.50063 6.24284 7.17633 5.88195 6.77897 5.88195C6.38145 5.88195 6.05732 6.24284 6.05732 6.68544C6.05732 7.13054 6.38162 7.48893 6.77897 7.48893C7.1765 7.48893 7.50063 7.13034 7.50063 6.68544ZM5.00242 11.8774C5.00242 11.4348 4.67812 11.0739 4.28077 11.0739C3.88325 11.0739 3.55912 11.435 3.55912 11.8774C3.55912 12.3225 3.88342 12.6809 4.28077 12.6809C4.67829 12.6811 5.00242 12.3225 5.00242 11.8774Z" fill="#148E86"/>
<path d="M1.94974 0.108975C1.96976 0.126212 1.98747 0.148492 2.00525 0.168282C2.00525 0.170772 2.00748 0.173262 2.00972 0.173262C2.00972 0.175751 2.01196 0.175751 2.01196 0.178241C2.01196 0.178241 2.01419 0.178241 2.01419 0.180731C3.16232 1.7037 3.19558 1.76064 3.2133 1.78771C3.34873 2.01524 3.29323 2.32186 3.08887 2.47265C2.89123 2.62088 2.6226 2.56662 2.4827 2.35154C2.45151 2.30456 2.30283 2.10672 2.11413 1.85212V15.1758H14.1942L13.7232 14.7703C13.5301 14.6022 13.4946 14.2931 13.6456 14.0756C13.7943 13.8605 14.0741 13.821 14.2673 13.9891L15.764 15.2796C15.7907 15.3044 15.815 15.3341 15.8372 15.3637C15.8416 15.3711 15.8461 15.3759 15.8504 15.3834C15.8727 15.418 15.8904 15.4552 15.9037 15.4922C15.9037 15.4972 15.9082 15.4997 15.9082 15.5022C15.9082 15.5047 15.9082 15.5072 15.9082 15.5072C15.9214 15.5517 15.9304 15.5937 15.9326 15.6382C15.9326 15.6482 15.9326 15.658 15.9326 15.668C15.9326 15.7125 15.9304 15.757 15.9194 15.8015L15.9172 15.804C15.9082 15.846 15.8904 15.8831 15.8705 15.9203C15.866 15.93 15.8617 15.9401 15.855 15.95C15.8505 15.9575 15.8462 15.9673 15.8418 15.9748C15.824 15.9996 15.804 16.0193 15.784 16.0391C15.7795 16.0441 15.7773 16.049 15.7751 16.0513L14.3338 17.3839C14.2494 17.4607 14.1494 17.4977 14.0497 17.4977C13.9209 17.4977 13.7943 17.4359 13.7076 17.3172C13.55 17.1071 13.5767 16.7955 13.7654 16.6225L14.2606 16.1651H1.66988C1.42333 16.1651 1.22586 15.945 1.22586 15.6707V1.88207L0.83057 2.42349C0.741639 2.54472 0.612916 2.60652 0.484193 2.60652C0.386489 2.60652 0.286549 2.56949 0.204327 2.49525C0.0156286 2.32218 -0.0133269 2.01064 0.139879 1.80054L1.3235 0.180539C1.34575 0.150981 1.37 0.126275 1.39449 0.103995C1.39896 0.101506 1.40343 0.096526 1.4079 0.0940362C1.43892 0.0694579 1.46994 0.0495398 1.50337 0.0347289C1.50784 0.0322392 1.51232 0.0297494 1.51662 0.0272597C1.52109 0.0247699 1.52332 0.0272597 1.52556 0.0247699C1.56329 0.0100229 1.60102 0.00248976 1.64104 0C1.64998 0 1.65881 0 1.66776 0C1.70325 0 1.73874 0.00248975 1.77217 0.0122573C1.77664 0.014747 1.78318 0.014747 1.78765 0.014747C1.82538 0.0270043 1.86087 0.0444964 1.89413 0.0667127C1.90307 0.074182 1.90961 0.07897 1.91861 0.0865031C1.92973 0.0939724 1.93868 0.0989519 1.94974 0.108975Z" fill="#148E86"/>
</svg>
