<svg width="21" height="21" viewBox="0 0 21 21" fill="none" xmlns="http://www.w3.org/2000/svg">
<g clip-path="url(#clip0)">
<path d="M10.5 21C16.299 21 21 16.299 21 10.5C21 4.70101 16.299 0 10.5 0C4.70101 0 0 4.70101 0 10.5C0 16.299 4.70101 21 10.5 21Z"/>
<path d="M10.5 0C4.70124 0 0 4.70123 0 10.5C0 14.9506 2.76543 18.7531 6.67161 20.2827C6.57654 19.4531 6.49877 18.1741 6.70617 17.2667C6.8963 16.4457 7.93333 12.0469 7.93333 12.0469C7.93333 12.0469 7.62222 11.416 7.62222 10.4914C7.62222 9.03086 8.46914 7.94198 9.52346 7.94198C10.4222 7.94198 10.8543 8.61605 10.8543 9.41975C10.8543 10.3185 10.284 11.6667 9.98148 12.9198C9.73087 13.9654 10.5086 14.821 11.537 14.821C13.4037 14.821 14.8383 12.8506 14.8383 10.016C14.8383 7.50123 13.0321 5.74691 10.4481 5.74691C7.45803 5.74691 5.7037 7.98519 5.7037 10.3012C5.7037 11.2 6.04938 12.1679 6.48148 12.6951C6.5679 12.7988 6.57654 12.8938 6.55062 12.9975C6.47284 13.3259 6.29136 14.0432 6.25679 14.1901C6.21358 14.3802 6.10124 14.4235 5.90247 14.3284C4.58889 13.7148 3.7679 11.8049 3.7679 10.258C3.7679 6.94815 6.17037 3.90617 10.7074 3.90617C14.3457 3.90617 17.1802 6.49877 17.1802 9.97284C17.1802 13.5938 14.8988 16.5062 11.7358 16.5062C10.6728 16.5062 9.67037 15.9531 9.33333 15.2963C9.33333 15.2963 8.80617 17.3012 8.67654 17.7938C8.44321 18.7099 7.8037 19.8506 7.37161 20.5506C8.35679 20.8531 9.39383 21.0173 10.4827 21.0173C16.2815 21.0173 20.9827 16.316 20.9827 10.5173C21 4.70123 16.2988 0 10.5 0Z" fill="#8b6ad5"/>
</g>
<defs>
<clipPath id="clip0">
<rect width="21" height="21" fill="white"/>f
</clipPath>
</defs>
</svg>
