<svg width="30" height="34" viewBox="0 0 30 34" fill="none" xmlns="http://www.w3.org/2000/svg">
<mask id="path-1-inside-1" fill="white">
<path fill-rule="evenodd" clip-rule="evenodd" d="M14.9365 15.5833C19.2397 15.5833 22.7281 12.0949 22.7281 7.79167C22.7281 7.26388 22.6757 6.74834 22.5756 6.25H25.8125C26.9171 6.25 27.8125 7.14543 27.8125 8.25V30C27.8125 31.1046 26.9171 32 25.8125 32H4.0625C2.95793 32 2.0625 31.1046 2.0625 30V8.25C2.0625 7.14543 2.95793 6.25 4.0625 6.25H7.2973C7.19728 6.74834 7.1448 7.26388 7.1448 7.79167C7.1448 12.0949 10.6333 15.5833 14.9365 15.5833ZM7.99439 4.25H4.0625C1.85336 4.25 0.0625 6.04086 0.0625 8.25V30C0.0625 32.2091 1.85336 34 4.0625 34H25.8125C28.0216 34 29.8125 32.2091 29.8125 30V8.25C29.8125 6.04086 28.0216 4.25 25.8125 4.25H21.8785C20.5889 1.72715 17.9644 0 14.9365 0C11.9086 0 9.28406 1.72715 7.99439 4.25Z"/>
</mask>
<path fill-rule="evenodd" clip-rule="evenodd" d="M14.9365 15.5833C19.2397 15.5833 22.7281 12.0949 22.7281 7.79167C22.7281 7.26388 22.6757 6.74834 22.5756 6.25H25.8125C26.9171 6.25 27.8125 7.14543 27.8125 8.25V30C27.8125 31.1046 26.9171 32 25.8125 32H4.0625C2.95793 32 2.0625 31.1046 2.0625 30V8.25C2.0625 7.14543 2.95793 6.25 4.0625 6.25H7.2973C7.19728 6.74834 7.1448 7.26388 7.1448 7.79167C7.1448 12.0949 10.6333 15.5833 14.9365 15.5833ZM7.99439 4.25H4.0625C1.85336 4.25 0.0625 6.04086 0.0625 8.25V30C0.0625 32.2091 1.85336 34 4.0625 34H25.8125C28.0216 34 29.8125 32.2091 29.8125 30V8.25C29.8125 6.04086 28.0216 4.25 25.8125 4.25H21.8785C20.5889 1.72715 17.9644 0 14.9365 0C11.9086 0 9.28406 1.72715 7.99439 4.25Z"/>
<path d="M22.5756 6.25V4.25H20.1343L20.6147 6.64357L22.5756 6.25ZM7.2973 6.25L9.2582 6.64356L9.7386 4.25H7.2973V6.25ZM7.99439 4.25V6.25H9.21817L9.7752 5.16034L7.99439 4.25ZM21.8785 4.25L20.0977 5.16034L20.6548 6.25H21.8785V4.25ZM20.7281 7.79167C20.7281 10.9903 18.1351 13.5833 14.9365 13.5833V17.5833C20.3443 17.5833 24.7281 13.1995 24.7281 7.79167H20.7281ZM20.6147 6.64357C20.6889 7.01305 20.7281 7.39676 20.7281 7.79167H24.7281C24.7281 7.13099 24.6624 6.48364 24.5365 5.85643L20.6147 6.64357ZM25.8125 4.25H22.5756V8.25H25.8125V4.25ZM29.8125 8.25C29.8125 6.04086 28.0216 4.25 25.8125 4.25V8.25H29.8125ZM29.8125 30V8.25H25.8125V30H29.8125ZM25.8125 34C28.0216 34 29.8125 32.2091 29.8125 30H25.8125V34ZM4.0625 34H25.8125V30H4.0625V34ZM0.0625 30C0.0625 32.2091 1.85336 34 4.0625 34V30H4.0625H0.0625ZM0.0625 8.25V30H4.0625V8.25H0.0625ZM4.0625 4.25C1.85336 4.25 0.0625 6.04086 0.0625 8.25H4.0625V4.25ZM7.2973 4.25H4.0625V8.25H7.2973V4.25ZM9.1448 7.79167C9.1448 7.39676 9.18404 7.01305 9.2582 6.64356L5.33641 5.85644C5.21052 6.48364 5.1448 7.13099 5.1448 7.79167H9.1448ZM14.9365 13.5833C11.7378 13.5833 9.1448 10.9903 9.1448 7.79167H5.1448C5.1448 13.1995 9.52868 17.5833 14.9365 17.5833V13.5833ZM7.99439 2.25H4.0625V6.25H7.99439V2.25ZM4.0625 2.25C0.748792 2.25 -1.9375 4.93629 -1.9375 8.25H2.0625C2.0625 7.14543 2.95793 6.25 4.0625 6.25V2.25ZM-1.9375 8.25V30H2.0625V8.25H-1.9375ZM-1.9375 30C-1.9375 33.3137 0.74879 36 4.0625 36V32C2.95793 32 2.0625 31.1046 2.0625 30H-1.9375ZM4.0625 36H25.8125V32H4.0625V36ZM25.8125 36C29.1262 36 31.8125 33.3137 31.8125 30H27.8125C27.8125 31.1046 26.9171 32 25.8125 32V36ZM31.8125 30V8.25H27.8125V30H31.8125ZM31.8125 8.25C31.8125 4.93629 29.1262 2.25 25.8125 2.25V6.25C26.9171 6.25 27.8125 7.14543 27.8125 8.25H31.8125ZM25.8125 2.25H21.8785V6.25H25.8125V2.25ZM14.9365 2C17.1843 2 19.1366 3.28011 20.0977 5.16034L23.6594 3.33966C22.0412 0.174184 18.7445 -2 14.9365 -2V2ZM9.7752 5.16034C10.7364 3.28011 12.6887 2 14.9365 2V-2C11.1285 -2 7.83176 0.174184 6.21358 3.33966L9.7752 5.16034Z" fill="#120D3D" mask="url(#path-1-inside-1)"/>
<path fill-rule="evenodd" clip-rule="evenodd" d="M12.6984 4.11008C12.2867 3.74192 11.6545 3.77719 11.2864 4.18886C10.9182 4.60053 10.9535 5.23271 11.3651 5.60087L13.3277 7.35601C13.4152 7.43433 13.5128 7.49438 13.6156 7.53645C13.3761 8.16913 13.534 8.91123 14.0684 9.38919C14.762 10.0094 15.827 9.95002 16.4472 9.25649C17.0675 8.56295 17.0081 7.49792 16.3145 6.87768C15.9369 6.54 15.4492 6.40377 14.9832 6.46166C14.9498 6.2393 14.8416 6.02682 14.6609 5.86522L12.6984 4.11008ZM14.9813 8.36847C14.8515 8.25238 14.8404 8.05305 14.9565 7.92324C15.0725 7.79344 15.2719 7.78232 15.4017 7.8984C15.5315 8.01449 15.5426 8.21383 15.4265 8.34363C15.3104 8.47344 15.1111 8.48456 14.9813 8.36847Z" fill="#148E86"/>
</svg>
