<svg width="32" height="32" viewBox="0 0 32 32" fill="none" xmlns="http://www.w3.org/2000/svg">
<circle cx="16" cy="16" r="16" fill="#211E3F"/>
<g clip-path="url(#clip0_151_2915)">
<path d="M14.004 22.7051C20.1353 22.7051 23.4879 17.6269 23.4879 13.2235C23.4879 13.0791 23.4851 12.9355 23.4782 12.7926C24.129 12.3221 24.6948 11.7354 25.1411 11.067C24.5438 11.3324 23.9011 11.5108 23.2269 11.5918C23.9149 11.1791 24.4434 10.5264 24.6923 9.74837C24.048 10.1299 23.3349 10.4079 22.5757 10.5572C21.9682 9.90941 21.1018 9.50439 20.1434 9.50439C18.3024 9.50439 16.8094 10.997 16.8094 12.8367C16.8094 13.0981 16.8386 13.3526 16.896 13.5966C14.1258 13.4574 11.6692 12.1311 10.0253 10.1145C9.73875 10.6069 9.57363 11.1791 9.57363 11.7896C9.57363 12.946 10.1621 13.9664 11.0569 14.5636C10.5101 14.547 9.99655 14.3965 9.54733 14.1469C9.54652 14.1606 9.54652 14.1748 9.54652 14.1893C9.54652 15.8033 10.6955 17.1507 12.2208 17.4565C11.9408 17.5326 11.6461 17.5739 11.3422 17.5739C11.1273 17.5739 10.9185 17.5524 10.7157 17.5136C11.1399 18.8375 12.3706 19.8012 13.83 19.8283C12.6887 20.7221 11.2516 21.255 9.68978 21.255C9.42065 21.255 9.15557 21.2396 8.89453 21.2089C10.3697 22.1536 12.1213 22.7051 14.004 22.7051Z" fill="white"/>
</g>
<defs>
<clipPath id="clip0_151_2915">
<rect width="16.247" height="13.2007" fill="white" transform="translate(8.89453 9.50439)"/>
</clipPath>
</defs>
</svg>
